<svg width="1170" height="1170" viewBox="0 0 1170 1170" fill="none" xmlns="http://www.w3.org/2000/svg">
<path d="M311.733 363.747C350.28 354.587 391.44 356.013 429.133 368.307C456.72 378.32 481.04 396.32 500.493 418.107C518.96 439.027 532.387 464.027 541.8 490.187C553.813 526.2 559.56 564.4 558.147 602.347C556.6 602.827 555.027 603.08 553.427 603.107C446.467 603.133 339.48 602.947 232.533 603.2C231.84 616.533 233.6 629.867 235.387 643.053C239.24 669.813 251.547 695.48 270.907 714.453C283.6 726.667 299.107 735.653 315.48 741.92C343.373 750.96 373.693 752.253 402.387 746.427C426.373 741.573 448.213 727.947 463.813 709.2C472.533 698.6 477.08 685.387 480.587 672.32C483.787 671.107 487.307 671.613 490.667 671.52C510.76 671.893 530.88 671.093 550.96 671.893C545.48 707.307 528.12 741.293 500.973 764.987C484.88 779.64 466.08 791.333 445.68 798.973C418.013 809.387 388.173 813.24 358.707 812.453C337.6 812.387 316.64 808.96 296.28 803.573C256.88 791.747 221.187 766.813 198.187 732.507C181.84 708.8 171.56 681.413 165.307 653.427C156.413 612.92 153.28 570.507 161.84 529.667C170.387 485.2 191.84 442.827 224.573 411.293C248.973 388.4 279.147 371.547 311.733 363.747ZM338.747 422.613C311.533 425.733 285.533 438.893 267.2 459.28C247.187 480.867 235.973 509.6 233.133 538.667C233.027 540.4 233.04 542.12 233.213 543.853C316.187 543.8 399.2 544.067 482.173 543.72C480.467 518.253 472.04 493 457.413 472C443.653 452.48 423.733 437.627 401.52 429.067C381.48 422.053 359.8 419.52 338.747 422.613Z" fill="black"/>
<path d="M587.813 358.84C617.667 358.4 647.547 358.853 677.413 358.613C679.827 358.853 683.187 358.2 684.507 360.84C719.573 412.027 754.693 463.187 789.653 514.44C790.333 515.347 791.067 516.213 791.867 517.053C829.533 464.52 866.893 411.707 904.533 359.16C907.4 358.453 910.387 358.627 913.333 358.6C940.373 358.853 967.413 358.427 994.453 358.813C947.533 421.947 900.253 484.84 853.16 547.84C848.56 554.627 842.787 560.667 838.813 567.84C859 596.84 880.04 625.307 900.44 654.173C935.387 702.787 970.2 751.493 1005.13 800.12C1007.92 804.28 1011.71 807.973 1013.2 812.867C985.693 812.893 958.173 812.8 930.68 812.893C926.573 812.827 922.4 813.293 918.373 812.373C910.373 802.4 903.933 791.24 896.627 780.747C879.56 754.787 861.707 729.36 844.627 703.413C830.72 682.28 816.147 661.6 802.227 640.493C798.733 635.52 795.853 630.107 791.84 625.52C791.4 626 790.507 626.933 790.067 627.413C749.32 687.987 708.467 748.493 667.853 809.173C666.92 810.413 665.947 811.667 664.707 812.64C635.28 813.08 605.773 812.88 576.333 812.747C575.213 811.227 577.16 809.68 577.693 808.32C629.813 735.52 681.68 662.52 733.72 589.667C737.147 584.133 741.84 579.413 744.747 573.573C696.347 507.093 647.387 440.973 598.787 374.627C595.053 369.413 590.64 364.64 587.813 358.84Z" fill="black"/>
<path d="M541.947 2.12006C550.16 1.38673 558.427 2.10673 566.653 1.38673C585.787 -0.106607 604.947 1.84006 624.093 1.80006C641.507 3.84006 659.107 4.36006 676.36 7.61339C696.147 10.5867 715.907 14.1067 735.24 19.2934C748.24 23.2267 761.64 25.9067 774.32 30.8801C804.32 41.2001 833.773 53.4267 861.387 69.1334C872.2 74.5201 882.213 81.2667 892.68 87.2667C897.667 90.1601 902.2 93.7601 906.973 97.0001C929.467 111.293 950.2 128.173 970.187 145.747C1003.57 174.68 1033.05 207.893 1059.64 243.107C1090.44 285.773 1116.71 332.013 1134.44 381.667C1137.8 390.84 1141.67 399.853 1144.09 409.333C1147.07 420.92 1150.79 432.293 1153.43 443.973C1157.72 460.147 1160.09 476.72 1163 493.173C1165.53 507.32 1166.29 521.707 1167.85 535.987C1168.88 545.733 1168.49 555.56 1169.24 565.32C1170.79 585.347 1168.84 605.387 1168.84 625.413C1166.69 642.76 1166.15 660.293 1162.91 677.493C1159.93 698.027 1155.88 718.4 1150.47 738.427C1146.69 751.413 1143.84 764.68 1138.73 777.24C1118.92 835.627 1088.59 890.227 1050.92 938.96C1011.6 989.133 965.267 1033.93 912.933 1070.37C891.653 1085.2 869.147 1098.12 846.253 1110.25C835.147 1115.04 824.613 1121.11 813.24 1125.32C757 1149.13 696.76 1163.08 635.907 1167.71C625.36 1169.52 614.64 1168.67 604.013 1169.33C590.24 1169.95 576.427 1170.16 562.667 1169.11C554.213 1168.64 545.707 1169.28 537.28 1168.12C521.4 1166.2 505.36 1165.49 489.627 1162.48C477.293 1160.01 464.72 1158.8 452.52 1155.67C392.68 1142.2 334.8 1119.33 282.84 1086.61C243.44 1062.76 207.6 1033.39 174.8 1001.15C111.547 938.253 60.6267 862 31.9333 777.24C25.8933 761.573 22.2267 745.147 17.6667 729.013C8.85333 691.96 3.37333 654.08 1.76 616.013C1.26667 599.12 0.106667 582.187 1.42667 565.307C2.14667 556.8 1.30667 548.227 2.30667 539.747C4.16 524.973 4.81333 510.08 7.32 495.4C11.4 471.4 15.4267 447.293 22.5333 423.96C28.3467 401.627 36.0667 379.787 45.32 358.64C60.1067 322.187 79.9467 288 102.267 255.653C163.187 168.293 246.96 96.6134 343.627 51.6401C369.107 40.6534 394.853 29.9067 421.84 23.1467C445.827 15.6667 470.64 11.4134 495.387 7.33339C510.8 4.68006 526.453 4.05339 541.947 2.12006ZM311.733 363.747C279.147 371.547 248.973 388.4 224.573 411.293C191.84 442.827 170.387 485.2 161.84 529.667C153.28 570.507 156.413 612.92 165.307 653.427C171.56 681.413 181.84 708.8 198.187 732.507C221.187 766.813 256.88 791.747 296.28 803.573C316.64 808.96 337.6 812.387 358.707 812.453C388.173 813.24 418.013 809.387 445.68 798.973C466.08 791.333 484.88 779.64 500.973 764.987C528.12 741.293 545.48 707.307 550.96 671.893C530.88 671.093 510.76 671.893 490.667 671.52C487.307 671.613 483.787 671.107 480.587 672.32C477.08 685.387 472.533 698.6 463.813 709.2C448.213 727.947 426.373 741.573 402.387 746.427C373.693 752.253 343.373 750.96 315.48 741.92C299.107 735.653 283.6 726.667 270.907 714.453C251.547 695.48 239.24 669.813 235.387 643.053C233.6 629.867 231.84 616.533 232.533 603.2C339.48 602.947 446.467 603.133 553.427 603.107C555.027 603.08 556.6 602.827 558.147 602.347C559.56 564.4 553.813 526.2 541.8 490.187C532.387 464.027 518.96 439.027 500.493 418.107C481.04 396.32 456.72 378.32 429.133 368.307C391.44 356.013 350.28 354.587 311.733 363.747ZM587.813 358.84C590.64 364.64 595.053 369.413 598.787 374.627C647.387 440.973 696.347 507.093 744.747 573.573C741.84 579.413 737.147 584.133 733.72 589.667C681.68 662.52 629.813 735.52 577.693 808.32C577.16 809.68 575.213 811.227 576.333 812.747C605.773 812.88 635.28 813.08 664.707 812.64C665.947 811.667 666.92 810.413 667.853 809.173C708.467 748.493 749.32 687.987 790.067 627.413C790.507 626.933 791.4 626 791.84 625.52C795.853 630.107 798.733 635.52 802.227 640.493C816.147 661.6 830.72 682.28 844.627 703.413C861.707 729.36 879.56 754.787 896.627 780.747C903.933 791.24 910.373 802.4 918.373 812.373C922.4 813.293 926.573 812.827 930.68 812.893C958.173 812.8 985.693 812.893 1013.2 812.867C1011.71 807.973 1007.92 804.28 1005.13 800.12C970.2 751.493 935.387 702.787 900.44 654.173C880.04 625.307 859 596.84 838.813 567.84C842.787 560.667 848.56 554.627 853.16 547.84C900.253 484.84 947.533 421.947 994.453 358.813C967.413 358.427 940.373 358.853 913.333 358.6C910.387 358.627 907.4 358.453 904.533 359.16C866.893 411.707 829.533 464.52 791.867 517.053C791.067 516.213 790.333 515.347 789.653 514.44C754.693 463.187 719.573 412.027 684.507 360.84C683.187 358.2 679.827 358.853 677.413 358.613C647.547 358.853 617.667 358.4 587.813 358.84Z" fill="#FFE600"/>
<path d="M338.747 422.613C359.8 419.52 381.48 422.053 401.52 429.067C423.733 437.627 443.653 452.48 457.413 472C472.04 493 480.467 518.253 482.173 543.72C399.2 544.067 316.187 543.8 233.213 543.853C233.04 542.12 233.027 540.4 233.133 538.667C235.973 509.6 247.187 480.867 267.2 459.28C285.533 438.893 311.533 425.733 338.747 422.613Z" fill="#FFE600"/>
</svg>
