<svg width="11" height="11" viewBox="0 0 11 11" fill="none" xmlns="http://www.w3.org/2000/svg">
<path d="M5.26973 -0.000183105H5.73907C6.70169 0.0550613 7.65404 0.342039 8.46462 0.86955C9.65996 1.63124 10.5395 2.87057 10.8553 4.25364C10.9413 4.61493 10.9765 4.98551 11 5.35559V5.65039C10.957 7.04031 10.3776 8.40724 9.38618 9.38551C8.40791 10.3779 7.04 10.9573 5.64911 10.9998H5.34796C4.06218 10.9578 2.79498 10.464 1.83871 9.60013C0.984622 8.8399 0.375467 7.80884 0.131511 6.69173C0.0562222 6.37493 0.0317778 6.04982 0 5.72617V5.26075C0.0327556 4.94151 0.0576889 4.62031 0.131022 4.30742C0.438533 2.89159 1.33809 1.62048 2.56373 0.850484C3.3704 0.333239 4.31493 0.0526169 5.26973 -0.000183105ZM5.11867 1.20884C4.05827 1.82679 2.99444 2.43839 1.93502 3.05782C1.71991 3.17955 1.58302 3.42008 1.5928 3.66795C1.59378 4.90484 1.59036 6.14222 1.59427 7.37959C1.59329 7.63773 1.76 7.87093 1.98684 7.98337C2.40289 8.20582 2.7852 8.51186 3.25111 8.62382C3.56791 8.67955 3.93018 8.64973 4.18147 8.42924C4.40489 8.2288 4.4792 7.91639 4.4792 7.62648C4.4792 6.46977 4.47822 5.31355 4.47969 4.15684C4.47578 4.05711 4.50071 3.94662 4.43422 3.86106C4.2636 3.86497 4.09298 3.85324 3.92284 3.86595C3.91013 3.88111 3.88471 3.91191 3.87249 3.92706C3.86418 5.16053 3.87151 6.39448 3.86858 7.62795C3.87542 7.81031 3.74538 7.99266 3.56498 8.03275C3.35524 8.08897 3.15089 7.98435 2.97538 7.88071C2.70893 7.72133 2.42147 7.58982 2.17604 7.40062C2.15844 6.18866 2.17507 4.97475 2.16773 3.76231C2.16724 3.67626 2.15356 3.56479 2.25182 3.52568C3.30636 2.91702 4.36333 2.31177 5.4164 1.70115C5.49022 1.63857 5.57529 1.70457 5.64324 1.74124C6.69044 2.36311 7.75476 2.95613 8.80587 3.57115C8.80733 4.85497 8.81076 6.13928 8.80391 7.42311C7.7396 8.04106 6.6704 8.65217 5.60951 9.27599C5.5616 9.29897 5.5044 9.34639 5.44964 9.31217C5.15827 9.15328 4.88156 8.96702 4.59067 8.80568C4.51733 8.80079 4.46111 8.86288 4.39707 8.88977C4.26213 8.97435 4.09738 8.99391 3.96733 9.08728C4.31542 9.33564 4.70604 9.51946 5.06391 9.75413C5.29907 9.92524 5.63249 9.95213 5.88378 9.79862C6.94076 9.19239 7.99236 8.57737 9.04493 7.96382C9.25516 7.84991 9.40378 7.62502 9.40378 7.38302C9.40769 6.19306 9.40329 5.00359 9.40573 3.81413C9.40573 3.68555 9.40915 3.55453 9.372 3.43035C9.31822 3.26217 9.18916 3.12675 9.0376 3.04071C7.986 2.43008 6.93293 1.82142 5.88182 1.20982C5.65449 1.06755 5.34649 1.06853 5.11867 1.20884ZM5.23844 4.06591C4.90062 4.33088 4.80773 4.84177 4.99889 5.21968C5.11427 5.43871 5.34502 5.56484 5.57284 5.63671C6.08178 5.80048 6.62933 5.75795 7.13973 5.91342C7.24387 5.94715 7.35435 5.98675 7.42622 6.07426C7.52253 6.26248 7.45164 6.52453 7.26293 6.62719C7.00236 6.76848 6.69582 6.76115 6.40787 6.75968C6.14387 6.75431 5.85836 6.74208 5.63102 6.59297C5.45404 6.47466 5.40711 6.25515 5.37973 6.05813C5.21253 6.01217 5.03507 6.03808 4.86347 6.03808C4.84733 6.04835 4.81458 6.06888 4.79796 6.07915C4.74369 6.44826 4.92067 6.83546 5.23062 7.0408C5.63102 7.30675 6.13213 7.34244 6.59902 7.33559C7.04978 7.32191 7.54502 7.23097 7.86769 6.88826C8.22702 6.49079 8.21089 5.71786 7.68924 5.46413C7.07422 5.16688 6.36044 5.25195 5.72293 5.03195C5.46284 4.95471 5.5044 4.55626 5.71902 4.44822C6.00111 4.29568 6.33747 4.32159 6.64644 4.33528C6.90898 4.34751 7.20964 4.44479 7.31427 4.71075C7.36658 4.81293 7.35533 5.01826 7.52253 4.98453C7.66676 4.96399 7.84667 5.03439 7.96791 4.94053C7.98796 4.57288 7.81489 4.18764 7.49467 3.99306C7.15489 3.78479 6.74422 3.75155 6.35507 3.75057C5.96591 3.75302 5.55133 3.81608 5.23844 4.06591Z" fill="#81CF08"/>
</svg>
