<svg width="10" height="11" viewBox="0 0 10 11" fill="none" xmlns="http://www.w3.org/2000/svg">
<path d="M7.36666 3.05964C7.51646 2.9562 7.73202 2.89936 7.89132 3.01657C7.84127 3.12142 7.76271 3.24144 7.6268 3.23933C7.50258 3.25662 7.39881 3.17013 7.36666 3.05964Z" fill="#F6F6F6"/>
<path d="M3.89573 3.09C4.05686 3.03175 4.25232 3.03528 4.39189 3.14154C4.4098 3.18108 4.41308 3.22979 4.37691 3.26121C4.28667 3.359 4.11604 3.38689 4.00936 3.29722C3.93227 3.2538 3.9129 3.16731 3.89573 3.09Z" fill="#F6F6F6"/>
<path d="M6.17632 0.169786C6.53218 0.0921209 6.89206 -0.0392039 7.26254 0.0109254C7.51537 0.0388143 7.77258 -0.0204937 8.02249 0.0412855C8.56541 0.168374 9.08313 0.41655 9.49307 0.786165C9.66223 0.979975 9.86062 1.17379 9.91287 1.43185C10.0159 1.98786 9.96402 2.56364 9.79814 3.10341C9.70205 3.40136 9.66369 3.71661 9.52266 4.00045C9.42255 4.19531 9.38273 4.41313 9.27275 4.60341C9.1109 4.88936 9.02431 5.21167 8.82592 5.47856C8.71521 5.6766 8.60524 5.87535 8.48248 6.06705C8.41342 6.16095 8.55628 6.20931 8.63191 6.21532C8.93881 6.24215 9.2501 6.21355 9.55006 6.14824C9.68561 6.11965 9.85697 6.09529 9.96511 6.19943C10.0272 6.31204 10.0049 6.46737 9.90994 6.5581C9.74699 6.72791 9.56029 6.88641 9.33304 6.96796C9.13136 7.04068 8.92602 7.10705 8.71521 7.15083C8.43681 7.18754 8.15475 7.1533 7.87926 7.10917C7.85223 7.29839 7.85186 7.49079 7.81021 7.67789C7.75212 7.93348 7.75943 8.1979 7.70024 8.45384C7.64324 8.69742 7.67064 8.95372 7.58917 9.19307C7.52413 9.38547 7.43864 9.57434 7.31661 9.7399C7.17375 9.93336 6.93627 10.0244 6.72034 10.1201C6.50003 10.2048 6.26218 10.2839 6.02177 10.2468C5.75396 10.214 5.45363 10.1635 5.28155 9.94077C5.09741 9.69966 4.95455 9.41547 4.93372 9.11223C4.90596 8.80545 4.81644 8.49267 4.88769 8.1866C4.89207 8.20037 4.90084 8.22755 4.90523 8.24132C4.91399 8.14318 4.91947 8.04433 4.91984 7.94584C4.98597 8.4083 4.9403 8.88453 5.06598 9.33922C5.16354 9.65659 5.378 9.97643 5.72035 10.0813C6.05648 10.1914 6.41855 10.1099 6.74153 9.99655C7.05793 9.88394 7.33561 9.64565 7.44047 9.33004C7.5709 8.94207 7.60305 8.53221 7.65932 8.13047C7.71412 7.74285 7.75285 7.35382 7.80473 6.9662C8.32135 7.10352 8.89716 7.05834 9.37615 6.82252C9.58294 6.70461 9.81787 6.57646 9.91396 6.35194C9.95598 6.27815 9.88948 6.20014 9.81203 6.1899C9.64104 6.16872 9.47516 6.22661 9.31002 6.25944C8.97644 6.33075 8.61985 6.29016 8.31076 6.15036C8.40027 5.9509 8.53582 5.77651 8.64762 5.5887C8.94758 5.08034 9.21028 4.55081 9.41634 4.00009C9.65017 3.40489 9.81568 2.78216 9.8756 2.14672C9.89167 1.89289 9.88254 1.63483 9.82481 1.38595C9.77001 1.15472 9.59171 0.980681 9.42145 0.821115C9.05646 0.459265 8.56907 0.21109 8.05281 0.129541C7.78317 0.0808241 7.51025 0.0172798 7.23404 0.0518762C6.98815 0.0818832 6.74116 0.102712 6.49674 0.139779C6.33196 0.163785 6.1818 0.241097 6.01775 0.265456C5.84384 0.269339 5.6776 0.206854 5.50661 0.185319C5.16061 0.12707 4.81023 0.202617 4.47446 0.280989C4.27534 0.323351 4.12335 0.467032 3.933 0.527399C3.7927 0.509042 3.66592 0.441261 3.53037 0.405606C3.27096 0.334648 3.00973 0.262278 2.73936 0.243568C2.45804 0.223093 2.17561 0.167315 1.89282 0.201558C1.50883 0.25663 1.11168 0.345592 0.803315 0.58706C0.381323 0.891013 0.175259 1.39972 0.107668 1.88972C0.0791694 2.26533 0.055421 2.64731 0.129224 3.01975C0.312635 4.07176 0.574964 5.11635 0.990015 6.10694C1.11716 6.40418 1.26915 6.69402 1.46718 6.95349C1.60163 7.12259 1.77408 7.2931 2.00207 7.32593C2.22859 7.35452 2.43063 7.21684 2.56947 7.05798C2.87455 6.7092 3.17378 6.35405 3.50297 6.02609C3.7368 6.14965 3.99913 6.20296 4.26329 6.21779C4.24977 6.29157 4.23625 6.36959 4.18437 6.42925C4.06891 6.57469 3.93702 6.72649 3.74776 6.7798C3.47959 6.87123 3.14966 6.873 2.96223 7.11023C2.9447 7.12823 2.92753 7.14659 2.91035 7.16495L2.89355 7.1826C2.90524 7.09611 2.91766 6.99762 2.99804 6.94325C3.21653 6.77733 3.51758 6.83805 3.75945 6.72649C3.94286 6.64424 4.08207 6.48679 4.165 6.31063C3.94469 6.32969 3.73278 6.27533 3.53658 6.18178C3.32613 6.34735 3.13834 6.53974 2.9816 6.75368C2.88587 6.88218 2.75946 6.98491 2.65679 7.10741C2.55705 7.22108 2.45731 7.34852 2.30714 7.40112C2.02508 7.49714 1.6831 7.39477 1.51212 7.15648C1.26075 6.87441 1.08099 6.54363 0.928634 6.20437C0.760934 5.91348 0.702476 5.5827 0.574234 5.27698C0.543178 5.19367 0.523449 5.10753 0.504085 5.02139C0.437954 4.71179 0.291444 4.42266 0.248697 4.10776C0.200835 3.74521 0.076612 3.39678 0.0397105 3.03245C-0.0282466 2.74933 0.011943 2.45914 0.0104815 2.17178C0.0141351 1.9575 0.0294803 1.74074 0.105841 1.5374C0.162106 1.28393 0.266234 1.03611 0.4438 0.838766C0.564369 0.708853 0.671054 0.561289 0.827429 0.468444C0.998053 0.364302 1.18585 0.288402 1.37547 0.223093C1.58775 0.148605 1.8161 0.175081 2.03677 0.161314C2.1895 0.154959 2.34222 0.122128 2.4953 0.139073C2.63962 0.153547 2.78211 0.18073 2.92351 0.211796C3.15003 0.26369 3.38532 0.285225 3.60125 0.374187C3.69624 0.4049 3.79051 0.457147 3.89317 0.452911C4.1946 0.352299 4.46752 0.159548 4.79342 0.135543C5.04333 0.117892 5.29397 0.134484 5.54388 0.130601C5.75688 0.121775 5.96477 0.232271 6.17632 0.169786Z" fill="#C0C5C8"/>
<path d="M6.21906 0.335707C6.63521 0.195557 7.08132 0.151076 7.52011 0.16555C8.33122 0.184966 9.13757 0.5567 9.61875 1.19567C9.7733 1.41702 9.79047 1.6952 9.79083 1.95397C9.77878 2.39701 9.68744 2.83476 9.56577 3.26121C9.28664 4.22744 8.84126 5.14777 8.28153 5.9915C8.2154 5.92019 8.15365 5.8457 8.09592 5.76839C8.20005 5.58023 8.29907 5.38465 8.32829 5.17072C8.41379 4.71038 8.27276 4.25145 8.27239 3.7911C8.27239 3.34206 8.46055 2.88771 8.3261 2.44326C8.06304 1.73898 7.57528 1.106 6.93225 0.684847C6.71303 0.534812 6.4613 0.443026 6.21906 0.335707Z" fill="#326993"/>
<path d="M1.2286 0.46562C1.63378 0.309583 2.08171 0.279223 2.51248 0.325469C2.96297 0.372775 3.40688 0.474445 3.83326 0.622362C3.69734 0.772397 3.54389 0.909017 3.43392 1.07953C3.07477 1.62248 2.92058 2.26886 2.87966 2.90607C2.86614 3.44832 2.93045 3.99338 2.84934 4.53316C2.79307 4.87842 2.85299 5.24168 3.03494 5.54528C3.12847 5.71367 3.27535 5.84535 3.41821 5.97455C3.12555 6.29122 2.8329 6.60823 2.55559 6.9376C2.43429 7.08517 2.27864 7.23661 2.07112 7.24544C1.85556 7.24261 1.69334 7.07846 1.56217 6.9316C1.28742 6.59164 1.11643 6.18743 0.957498 5.78816C0.637807 4.93384 0.410917 4.04881 0.246139 3.15531C0.132878 2.57705 0.132878 1.96456 0.331634 1.4036C0.477048 0.987742 0.804411 0.630835 1.2286 0.46562Z" fill="#326993"/>
<path d="M4.1756 0.523516C4.64399 0.266162 5.20884 0.244274 5.72985 0.32547C6.4507 0.439143 7.11456 0.825704 7.57565 1.37042C7.89205 1.73756 8.14744 2.16049 8.28372 2.62118C7.94868 2.60918 7.58917 2.5594 7.27825 2.71367C7.05391 2.81746 6.94358 3.06423 6.93663 3.29405C6.92567 3.64213 7.0499 3.97609 7.18216 4.29451C7.32392 4.60694 7.48541 4.91125 7.65822 5.20885C7.76345 5.39101 7.83506 5.59117 7.96403 5.76027C8.05099 5.88383 8.17484 5.98726 8.2154 6.13659C8.08168 6.18001 7.92713 6.20967 7.83798 6.32581C7.69147 6.49703 7.73824 6.73285 7.71083 6.9376C7.6352 7.60799 7.55556 8.27839 7.44741 8.94489C7.39407 9.28309 7.24609 9.64282 6.91946 9.8151C6.58881 9.98737 6.19568 10.0922 5.82082 10.0199C5.42331 9.93159 5.19094 9.54221 5.12115 9.17966C5.00789 8.42418 5.03164 7.65812 5.0342 6.897C5.03164 6.74097 5.05356 6.57187 4.96807 6.43101C4.895 6.29545 4.75323 6.19484 4.5943 6.18107C4.50333 6.18001 4.42003 6.22061 4.33563 6.2485C4.39007 5.86088 4.56946 5.50538 4.72291 5.14777C4.97793 4.54587 4.91838 3.87512 4.78831 3.25239C4.74885 3.05575 4.65495 2.85277 4.46898 2.74827C4.24173 2.61977 3.96186 2.63424 3.71451 2.69249C3.44999 2.7518 3.2052 2.87077 2.97648 3.00951C2.97721 2.58941 3.06636 2.17178 3.19935 1.77287C3.36961 1.2691 3.69296 0.793226 4.1756 0.523516Z" fill="#326993"/>
<path d="M7.45837 2.74262C7.72399 2.66778 8.00751 2.68331 8.27714 2.73062C8.29066 3.06352 8.18763 3.38618 8.17923 3.71767C8.1573 4.19814 8.32245 4.67578 8.2333 5.15554C8.20005 5.32746 8.14452 5.49797 8.05099 5.64871C7.98485 5.65719 7.96622 5.5827 7.9359 5.54175C7.6542 4.96314 7.28373 4.41984 7.10616 3.79781C7.04332 3.57399 6.99874 3.33288 7.06634 3.10482C7.11749 2.9269 7.27715 2.79169 7.45837 2.74262ZM7.36666 3.05964C7.39881 3.17013 7.50258 3.25662 7.6268 3.23933C7.76271 3.24144 7.84127 3.12142 7.89132 3.01657C7.73202 2.89936 7.51646 2.9562 7.36666 3.05964Z" fill="#326993"/>
<path d="M2.97977 3.12424C3.31115 2.90148 3.70611 2.7345 4.11604 2.74262C4.36997 2.7458 4.6049 2.9209 4.66262 3.16166C4.77552 3.61035 4.83909 4.0774 4.78575 4.53881C4.72035 5.09694 4.36705 5.56893 4.25488 6.11576C3.90742 6.14683 3.56398 5.99468 3.32394 5.75744C3.1029 5.53786 2.96808 5.24379 2.93191 4.94055C2.90012 4.66201 2.98343 4.38771 2.98416 4.10953C3.00717 3.78086 2.96662 3.45255 2.97977 3.12424ZM3.89573 3.09C3.9129 3.16731 3.93227 3.2538 4.00936 3.29722C4.11604 3.38689 4.28667 3.359 4.37691 3.26121C4.41308 3.22979 4.4098 3.18108 4.39189 3.14154C4.25232 3.03528 4.05686 3.03175 3.89573 3.09Z" fill="#326993"/>
<path d="M7.86428 6.45961C7.92713 6.31028 8.1025 6.26509 8.24645 6.22167C8.4295 6.34099 8.64652 6.4056 8.86757 6.39995C9.19274 6.41477 9.50585 6.30498 9.82883 6.30075C9.77841 6.45184 9.64286 6.55139 9.51353 6.63824C9.11017 6.90901 8.59866 6.9895 8.11675 6.94855C8.01701 6.93337 7.89936 6.92172 7.83323 6.83911C7.80181 6.71414 7.81898 6.57928 7.86428 6.45961Z" fill="#326993"/>
<path d="M4.53475 6.27498C4.82667 6.2545 5.04516 6.62659 4.88878 6.86276C4.78173 7.01597 4.63522 7.14271 4.47118 7.23697C4.15258 7.41454 3.75872 7.42901 3.4098 7.33511C3.29617 7.30263 3.17853 7.25815 3.09888 7.17024C3.0649 7.08693 3.17049 7.05128 3.23187 7.02762C3.5216 6.92878 3.87819 6.93795 4.09741 6.69966C4.24283 6.55987 4.32905 6.3417 4.53475 6.27498Z" fill="#326993"/>
<path d="M4.26986 7.43572C4.52671 7.36441 4.73935 7.19743 4.91545 7.00891C4.90267 7.32098 4.91217 7.63376 4.91984 7.94584C4.91947 8.04433 4.91399 8.14318 4.90523 8.24132C4.90084 8.22755 4.89207 8.20037 4.88769 8.1866C4.89098 7.84417 4.92678 7.49608 4.86394 7.15612C4.76273 7.23414 4.67176 7.32557 4.56106 7.39159C4.24611 7.5621 3.87271 7.58081 3.5216 7.53951C3.27791 7.49856 3.02617 7.38912 2.91035 7.16495C2.92753 7.14659 2.9447 7.12823 2.96223 7.11023C2.9984 7.24685 3.10655 7.34958 3.24429 7.3923C3.57093 7.50067 3.93629 7.54233 4.26986 7.43572Z" fill="#326993"/>
</svg>
