<svg width="10" height="9" viewBox="0 0 10 9" fill="none" xmlns="http://www.w3.org/2000/svg">
<path d="M2.2311 0.351842C2.39578 0.150118 2.64794 0.0156345 2.91354 0.00335809C3.22203 -0.0203578 3.52508 0.0759008 3.79869 0.207594C4.2487 0.422711 4.63123 0.743573 4.99947 1.06946C5.34741 0.762545 5.7065 0.459261 6.12448 0.245539C6.42725 0.0895723 6.76747 -0.028449 7.11484 0.00586929C7.4339 0.0293062 7.72238 0.231589 7.87219 0.503624C8.04401 0.812767 8.09319 1.17213 8.0849 1.5195C8.08776 1.92351 7.99513 2.31942 7.91765 2.71367C8.48258 2.88972 9.05839 3.09284 9.51583 3.47453C9.76256 3.67848 9.97155 3.95805 9.99614 4.28198C10.0202 4.52556 9.93009 4.76746 9.78429 4.96249C9.62447 5.17789 9.40433 5.3425 9.17532 5.48312C8.7865 5.71386 8.35765 5.87318 7.92136 5.99622C7.92851 6.1268 7.97197 6.2518 7.99455 6.38042C8.07632 6.76964 8.10634 7.17058 8.07089 7.56677C8.028 7.87675 7.93737 8.20068 7.70722 8.43031C7.52768 8.6192 7.26322 8.71909 7.00134 8.71769C6.68113 8.71797 6.37436 8.60246 6.09618 8.45598C5.68934 8.24393 5.33969 7.94678 4.99947 7.64713C4.59749 8.00314 4.17551 8.3533 3.67232 8.56563C3.37727 8.69063 3.0402 8.76652 2.72285 8.68142C2.4644 8.61557 2.24883 8.43226 2.12246 8.20599C2.00724 8.00119 1.95406 7.76961 1.92633 7.53943C1.89231 7.14407 1.9269 6.74509 2.00896 6.35698C2.03097 6.23645 2.07157 6.11899 2.07729 5.99622C1.66759 5.88099 1.26505 5.73284 0.894806 5.5247C0.58003 5.34222 0.271544 5.1126 0.105437 4.78588C-0.0337965 4.52444 -0.0349401 4.19967 0.100862 3.93713C0.237236 3.66593 0.475105 3.45974 0.72784 3.29345C1.13982 3.02253 1.61213 2.8607 2.08158 2.71367C1.96807 2.18438 1.86315 1.64087 1.93662 1.09847C1.97608 0.833135 2.05699 0.564169 2.2311 0.351842ZM2.57247 0.60072C2.43781 0.758081 2.38463 0.963991 2.3549 1.16237C2.30057 1.64645 2.38549 2.13165 2.49727 2.60206C2.64851 2.59453 2.79432 2.54989 2.94328 2.52589C3.2166 2.47176 3.49449 2.44637 3.77124 2.41652C3.85987 2.41959 3.89933 2.33505 3.94621 2.27701C4.17436 1.96173 4.43253 1.66877 4.69241 1.3786C4.44511 1.12219 4.15807 0.901214 3.85444 0.710928C3.58055 0.547428 3.27178 0.397042 2.94156 0.419921C2.7989 0.425501 2.66252 0.4933 2.57247 0.60072ZM6.49815 0.527898C6.16851 0.668519 5.87461 0.877498 5.60272 1.10461C5.50208 1.1939 5.39287 1.27509 5.30681 1.3786C5.57098 1.67379 5.83344 1.97206 6.06473 2.2932C6.10419 2.33784 6.13306 2.40815 6.20196 2.41206C6.47871 2.44637 6.75775 2.46702 7.03136 2.52143C7.1886 2.54598 7.34213 2.59341 7.50166 2.60206C7.61745 2.11044 7.70894 1.60041 7.63375 1.09596C7.58943 0.847365 7.48622 0.565843 7.2312 0.457866C6.99105 0.371652 6.72573 0.433871 6.49815 0.527898ZM4.79276 1.9037C4.66611 2.05325 4.53116 2.19722 4.42367 2.36044C4.6155 2.37244 4.80734 2.35179 4.99947 2.35597C5.19131 2.35207 5.38315 2.37244 5.57498 2.36044C5.51809 2.26781 5.44576 2.18578 5.37571 2.10235C5.25363 1.96229 5.14099 1.81162 4.99947 1.68886C4.92027 1.75052 4.85938 1.83032 4.79276 1.9037ZM4.24698 2.79067C4.19495 2.79402 4.14263 2.79737 4.09231 2.80992C4.01283 2.8847 3.96565 2.98486 3.90419 3.07275C3.66603 3.4257 3.45618 3.79567 3.25834 4.17122C3.22775 4.23316 3.18744 4.29314 3.176 4.36234C3.19916 4.44297 3.24462 4.51496 3.28264 4.58973C3.50707 5.02024 3.75752 5.43792 4.03341 5.83914C4.05228 5.86509 4.07372 5.88936 4.09517 5.91364C4.69699 5.95019 5.30166 5.95019 5.90348 5.91364C5.92979 5.88434 5.95552 5.85476 5.97782 5.82268C6.24771 5.42565 6.49558 5.01438 6.71658 4.58945C6.75432 4.51496 6.79978 4.44269 6.82294 4.36234C6.79864 4.25324 6.73002 4.15978 6.68142 4.06017C6.48472 3.68518 6.26457 3.32274 6.02871 2.97035C5.97639 2.90032 5.93722 2.78928 5.83029 2.79625C5.30309 2.76556 4.77418 2.76863 4.24698 2.79067ZM2.63022 3.01025C2.64337 3.11851 2.68654 3.22007 2.72256 3.32247C2.79004 3.49992 2.84836 3.68183 2.93927 3.84952C3.00989 3.75103 3.0625 3.64193 3.12139 3.53703C3.24404 3.30824 3.397 3.09675 3.51908 2.86796C3.21917 2.88916 2.92469 2.95306 2.63022 3.01025ZM6.47986 2.86796C6.52903 2.97287 6.59679 3.06745 6.65769 3.16594C6.80121 3.38831 6.91785 3.62603 7.05938 3.84952C7.138 3.70862 7.18774 3.55516 7.24635 3.40589C7.29038 3.27503 7.35042 3.14781 7.36901 3.01025C7.07453 2.95334 6.77977 2.88888 6.47986 2.86796ZM0.815612 3.74266C0.631778 3.88495 0.453948 4.07245 0.427646 4.31016C0.404774 4.5317 0.544007 4.73091 0.700966 4.87711C0.968854 5.11929 1.30136 5.28056 1.63786 5.41225C1.82141 5.4795 2.00438 5.55148 2.19651 5.59277C2.24597 5.49372 2.27256 5.38603 2.31087 5.28279C2.41636 4.99402 2.53187 4.70831 2.66224 4.42902C2.70998 4.35285 2.65309 4.27278 2.62421 4.20135C2.45553 3.85008 2.33288 3.48066 2.19736 3.11711C1.71191 3.26276 1.22073 3.43519 0.815612 3.74266ZM7.80157 3.11739C7.69207 3.39947 7.60316 3.68964 7.47908 3.9667C7.4299 4.10118 7.34813 4.22479 7.31554 4.36457C7.36672 4.52082 7.45163 4.66451 7.50795 4.81936C7.61917 5.07242 7.69893 5.3372 7.80243 5.59277C8.00142 5.54953 8.19125 5.47503 8.38166 5.40444C8.71645 5.27107 9.04838 5.10897 9.31255 4.86344C9.46922 4.71417 9.6036 4.5077 9.56843 4.28505C9.52841 4.04399 9.34114 3.85928 9.15016 3.71727C8.75047 3.42598 8.27416 3.25829 7.80157 3.11739ZM2.81119 5.15835C2.74601 5.33748 2.6651 5.5127 2.6265 5.69991C2.91898 5.7719 3.21888 5.82296 3.51965 5.84807C3.47076 5.74707 3.40529 5.65499 3.3464 5.55957C3.20116 5.33274 3.08022 5.09223 2.94042 4.86232C2.88495 4.95551 2.85093 5.05819 2.81119 5.15835ZM6.8927 5.15417C6.76404 5.39077 6.60937 5.61258 6.47929 5.84807C6.78005 5.82296 7.07996 5.7719 7.37244 5.69991C7.34356 5.54813 7.27923 5.40612 7.22748 5.26103C7.17288 5.12766 7.13085 4.98844 7.0588 4.8626C6.99448 4.95468 6.94759 5.05679 6.8927 5.15417ZM2.51071 6.10364C2.42437 6.35503 2.39578 6.62149 2.35633 6.88264C2.32859 7.2261 2.31487 7.58714 2.44867 7.91302C2.51957 8.08992 2.66653 8.25091 2.86466 8.28718C3.16571 8.34242 3.46133 8.2191 3.72121 8.08294C4.07687 7.88373 4.40022 7.63039 4.68841 7.34635C4.66983 7.31064 4.6461 7.278 4.61808 7.24926C4.3359 6.95351 4.08745 6.62958 3.84129 6.30592C3.39357 6.26937 2.94842 6.20157 2.51071 6.10364ZM6.15765 6.3062C5.9315 6.60335 5.70335 6.9005 5.44947 7.17616C5.39973 7.23001 5.34398 7.28051 5.31024 7.34608C5.60872 7.63932 5.94379 7.90214 6.31518 8.10275C6.57678 8.23472 6.87955 8.35386 7.17717 8.2763C7.41904 8.20961 7.55112 7.9705 7.60602 7.74729C7.70465 7.33771 7.65548 6.9111 7.58429 6.50123C7.55684 6.36786 7.53911 6.23115 7.48851 6.10364C7.05051 6.2013 6.60565 6.27105 6.15765 6.3062ZM4.42224 6.35252C4.49829 6.47835 4.60178 6.58466 4.69441 6.69877C4.79391 6.81065 4.88454 6.93119 4.99947 7.02912C5.12355 6.9217 5.22247 6.79029 5.33054 6.66808C5.41459 6.56457 5.50808 6.46747 5.5767 6.35252C5.19188 6.35782 4.80706 6.3581 4.42224 6.35252Z" fill="#61DAFB"/>
<path d="M4.7799 3.50996C5.07466 3.44132 5.40659 3.51638 5.62216 3.72898C5.9398 4.0186 5.98668 4.53784 5.72251 4.87544C5.48379 5.2083 4.99347 5.32967 4.6198 5.15138C4.27529 5.00016 4.05829 4.61875 4.11032 4.25325C4.14978 3.90253 4.42682 3.59032 4.7799 3.50996Z" fill="#61DAFB"/>
</svg>
