<svg width="1331" height="555" viewBox="0 0 1331 555" fill="none" xmlns="http://www.w3.org/2000/svg">
<path d="M1177.24 0H1206.12C1227.4 1.42667 1248.73 6.38667 1267.51 16.8C1280.61 24 1292.39 33.5333 1302.59 44.4533C1310.08 52.48 1314.44 62.8133 1317.96 73.08C1326.11 97.2 1327.84 122.787 1329.71 148C1331.32 170.96 1329.63 193.96 1328.96 216.933C1327.81 249.16 1328.33 281.48 1325.03 313.6C1322.15 340.533 1321.07 367.627 1321.03 394.707C1320.95 420.52 1320.37 446.573 1314.55 471.84C1311.08 486.68 1306.15 501.613 1297 514.013C1294.52 517.573 1290.81 520.173 1286.49 520.84C1259.64 526.32 1232.93 532.56 1206.07 537.973C1193.24 540.453 1180.45 543.347 1167.39 544.253C1036 557.04 903.907 546.28 772.227 551.213C754.64 552.027 737.027 552.653 719.52 554.667H710.493C681.92 551.067 653.053 552.067 624.36 552.88C607.64 553.453 590.92 554.04 574.2 554.667H536.787C534.773 552.813 532.88 550.787 530.56 549.347C525.16 550.267 520.64 554.213 515.053 554.267C506.307 553.827 498.52 548.667 489.733 548.547C482.707 548.88 476.8 553.813 469.72 553.96C455.827 554.467 443.52 545.587 429.613 546.147C422.84 546.28 417.107 550.24 411.653 553.773C409.387 546.107 406.72 538.547 402.933 531.493C398.427 535.733 393.4 539.507 389.453 544.307C389.013 547.733 389.373 551.213 389.4 554.667H387.027C379.067 545.533 380.693 532.027 373.4 522.613C370.653 523.693 368.28 525.48 365.933 527.227C367.973 529.027 370.08 530.773 372.24 532.48C371.987 534.68 371.747 536.88 371.493 539.107C368.987 539.587 366.467 540.08 363.96 540.573C363.013 545.373 361.707 550.107 359.92 554.667H354.493C351.253 552.32 348.4 549.48 345.04 547.293C342.213 545.44 338.64 546.08 335.44 545.867C335.613 541.813 335.733 537.76 335.707 533.707C331.307 535.96 327.2 538.72 322.933 541.187C320.28 542.973 317.053 541.44 314.267 540.893C285.933 532.44 256.173 530.507 226.773 530.027C179.307 529.28 130.973 532.76 84.4799 521.053C60.2133 515.12 37.0533 504.707 16.4399 490.613C14.8266 489.147 11.9199 487.947 12.6266 485.293C13.5999 478.867 17.0266 473.173 19.2933 467.16C17.2266 464.56 14.6933 462.253 13.2399 459.227C11.9466 454.813 12.3599 450.12 11.7733 445.6C11.0133 437.12 7.5866 429.187 6.15994 420.84C5.21327 415.507 6.0666 410.12 6.41327 404.787C6.99994 397.973 2.55994 391.373 4.95994 384.613C7.25327 377.36 11.6133 370.56 11.2799 362.68C11.8266 359.627 10.2666 355.027 13.7333 353.347C19.0266 351.347 24.9066 353.067 30.2933 351.4C33.7066 344.707 33.4266 336.28 38.9999 330.667C48.9999 319.547 65.0933 319.533 78.3199 314.84C73.0399 298.747 66.5199 282.533 66.7333 265.32C66.5866 255.027 69.6133 245.067 73.1866 235.52C67.7066 231.973 61.5199 229.907 55.4799 227.587C49.4666 225.293 46.7733 219.04 43.9599 213.747C41.2266 214.627 38.4799 215.493 35.7066 216.307C34.9866 208.4 33.9999 200.44 31.3733 192.893C23.9599 170.88 11.3866 150.92 5.1466 128.467C1.77327 117.653 -1.30673 105.64 3.23994 94.68C8.13327 82.7467 19.9866 75.64 31.5599 71.28C52.1599 63.7467 74.1599 61.7733 95.6399 58.1867C104.36 56.88 112.56 53.4267 121.2 51.7467C234.76 31.12 350.427 25.36 465.667 24.5467C562.12 23.9333 658.547 26.5867 755 26.9467C774.347 26.7867 793.72 27.5733 813.013 25.7467C913.613 18.9867 1014.03 7.81333 1114.96 7.18667C1122.05 7 1129.08 5.76 1136.11 4.77333C1149.76 2.76 1163.49 1.34667 1177.24 0ZM250.413 96.68C232.907 103.253 217.653 115.253 206.693 130.347C196.667 144.733 191.947 162.16 190.333 179.453C188.76 197.587 190.507 216.453 197.773 233.307C204.147 246.853 214.333 258.533 226.413 267.32C234.667 273.56 243.84 278.413 252.893 283.387C274.413 295.227 297.68 303.387 319.893 313.773C337.533 321.64 355.653 330.2 368.72 344.893C376.987 353.547 381.32 365.387 381.707 377.253C382.293 389.573 380 402.973 371.44 412.387C361.693 423.187 347.173 428.027 333.147 430.04C316.187 431.88 298.48 431.147 282.573 424.427C267.347 418.373 254.24 406.827 247.067 392C238.84 375.053 236.307 356.08 234.64 337.52C219.24 337.36 203.853 337.387 188.467 337.493C188.24 378.733 188.267 419.973 188.44 461.2C203 461.293 217.573 461.467 232.147 461.093C234.133 451.427 235.72 441.693 237.947 432.08C244.373 438 250.36 444.48 257.653 449.373C268.733 456.893 281.44 461.987 294.627 464.32C318.307 468.48 342.813 467.213 366.187 461.8C391.32 455.773 415.88 442.88 431.24 421.547C443.493 405.12 448.987 384.36 448.547 364.013C449.013 343.067 442.187 321.467 427.4 306.28C412.147 289.667 392.267 278.48 372.72 267.72C348.4 254.56 322.627 244.387 298.08 231.653C284.333 225.067 270.227 216.96 262.227 203.453C255.84 191.093 255.733 176.44 258.053 163C260.053 150.96 266.2 138.987 276.84 132.453C288.413 124.96 302.573 123.08 316.107 123.213C326.347 123.453 336.733 124.813 346.293 128.707C359.747 134.133 370.92 144.92 376.853 158.173C385.347 176.507 387.213 196.96 387.44 216.92C402.253 217.44 417.08 217.453 431.893 216.907C432.067 210.387 432.267 203.853 432.173 197.333C431.893 162.8 432.507 128.267 431.893 93.7467C417.373 93.0667 402.853 93.36 388.333 93.52C386.72 100.92 385.12 108.32 383.96 115.8C376.173 110.333 368.6 104.427 359.947 100.36C346.933 93.8667 332.627 90.3467 318.24 88.72C295.453 86.6133 271.88 88.3867 250.413 96.68ZM602.947 93.5733C603 103.333 600.973 113.467 603.867 122.96C619.667 127.733 636.227 129.733 652.24 133.787C653.173 146.067 652.547 158.373 652.707 170.667C652.653 232.867 652.787 295.08 652.64 357.28C652.76 374.44 650.067 392.307 640.613 406.973C632.253 420.213 616.867 427.733 601.547 429.053C587.973 430.147 574.04 429.08 561.12 424.6C549.28 420.453 538.547 411.453 535.093 399.04C545.72 391.667 553.08 380.133 555.813 367.547C557.733 357.427 556.933 346.187 550.88 337.507C543.48 326.2 529.44 320.973 516.32 321.24C505.573 321.187 494.213 325.067 487.56 333.867C477.893 346.547 475.173 363.053 476.067 378.64C476.28 398.227 484.893 417.227 498.6 431.067C515.613 448.373 538.68 458.56 562.227 463.32C589.64 468.4 618.573 468.493 645.2 459.48C665.2 452.36 683.867 440.147 696.493 422.867C711.667 402.627 719.333 377.187 719.12 351.987C719.08 285.773 719.147 219.547 719.093 153.333C719.213 147.013 718.187 140.48 720.053 134.333C732.48 129.24 746.013 127.4 758.853 123.467C759.747 113.52 759.613 103.533 759.027 93.5733C739.467 93.1467 719.893 93.5067 700.333 93.3867C667.867 93.52 635.413 93.1467 602.947 93.5733ZM797.733 93.4533C797.4 103.24 797.453 113.013 797.64 122.8C811.547 127.32 825.907 130.173 840.067 133.747C840.627 156.707 840.133 179.693 840.293 202.667C840.133 275.413 840.613 348.173 840.053 420.92C829.627 423.32 819.293 426.093 808.853 428.44C805.133 429.387 801.24 430.16 798.04 432.4C796.68 441.933 797.787 451.613 797.72 461.213C850.12 461.32 902.507 461.32 954.893 461.213C955.173 451.24 955.36 441.28 954.573 431.333C938.76 427.933 922.973 424.467 907.2 420.933C906.92 414.853 906.68 408.76 906.773 402.667C907.093 368.52 906.467 334.36 907.067 300.213C919.493 299.933 931.907 300.28 944.333 299.973C947.707 299.987 951.16 299.827 954.467 300.667C957.173 302.467 958.453 305.653 959.987 308.4C976.853 343.227 995.267 377.267 1012.37 411.987C1016.35 420.587 1022.67 428.72 1022.65 438.613C1022.71 446.107 1022.52 453.6 1022.92 461.093C1062.91 461.453 1102.89 461.253 1142.88 461.2C1143.13 451.24 1143.29 441.267 1142.55 431.32C1130.72 428.893 1118.93 426.267 1107.08 424.013C1103.16 423.093 1098.6 422.453 1096.09 418.933C1092.55 414.267 1090.07 408.92 1087.04 403.933C1069.07 373.84 1051.45 343.547 1033.57 313.4C1028.67 305.213 1022.04 298.28 1016.24 290.76C1025.15 287.853 1034.31 285.427 1042.6 280.96C1054.59 274.32 1066.11 266.52 1075.88 256.853C1089.56 242.173 1099.67 223.76 1102.85 203.813C1106.8 183.147 1101.48 161.667 1091.59 143.413C1079.85 121.573 1058.53 105.52 1034.75 99C1013.99 93.48 992.333 93.0933 971 93.4C913.24 93.44 855.48 93.3067 797.733 93.4533Z" fill="#A437DB"/>
<path d="M907.04 130.813C924.8 130.587 942.56 130.813 960.32 130.693C975.32 130.84 991.16 132.053 1004.31 139.987C1019.29 149.2 1029.89 165.413 1031.91 182.947C1034.05 201.227 1030.52 220.507 1020.48 236.08C1012.48 248.587 999.053 256.88 984.84 260.507C973.827 263.573 962.293 262.76 951 262.8C936.333 262.693 921.667 263 907 262.667C906.76 218.72 906.68 174.76 907.04 130.813Z" fill="#A437DB"/>
<path d="M250.413 96.68C271.88 88.3867 295.453 86.6133 318.24 88.72C332.627 90.3467 346.933 93.8667 359.947 100.36C368.6 104.427 376.173 110.333 383.96 115.8C385.12 108.32 386.72 100.92 388.333 93.52C402.853 93.36 417.373 93.0667 431.893 93.7467C432.507 128.267 431.893 162.8 432.173 197.333C432.267 203.853 432.067 210.387 431.893 216.907C417.08 217.453 402.253 217.44 387.44 216.92C387.213 196.96 385.347 176.507 376.853 158.173C370.92 144.92 359.747 134.133 346.293 128.707C336.733 124.813 326.347 123.453 316.107 123.213C302.573 123.08 288.413 124.96 276.84 132.453C266.2 138.987 260.053 150.96 258.053 163C255.733 176.44 255.84 191.093 262.227 203.453C270.227 216.96 284.333 225.067 298.08 231.653C322.627 244.387 348.4 254.56 372.72 267.72C392.267 278.48 412.147 289.667 427.4 306.28C442.187 321.467 449.013 343.067 448.547 364.013C448.987 384.36 443.493 405.12 431.24 421.547C415.88 442.88 391.32 455.773 366.187 461.8C342.813 467.213 318.307 468.48 294.627 464.32C281.44 461.987 268.733 456.893 257.653 449.373C250.36 444.48 244.373 438 237.947 432.08C235.72 441.693 234.133 451.427 232.147 461.093C217.573 461.467 203 461.293 188.44 461.2C188.267 419.973 188.24 378.733 188.467 337.493C203.853 337.387 219.24 337.36 234.64 337.52C236.307 356.08 238.84 375.053 247.067 392C254.24 406.827 267.347 418.373 282.573 424.427C298.48 431.147 316.187 431.88 333.147 430.04C347.173 428.027 361.693 423.187 371.44 412.387C380 402.973 382.293 389.573 381.707 377.253C381.32 365.387 376.987 353.547 368.72 344.893C355.653 330.2 337.533 321.64 319.893 313.773C297.68 303.387 274.413 295.227 252.893 283.387C243.84 278.413 234.667 273.56 226.413 267.32C214.333 258.533 204.147 246.853 197.773 233.307C190.507 216.453 188.76 197.587 190.333 179.453C191.947 162.16 196.667 144.733 206.693 130.347C217.653 115.253 232.907 103.253 250.413 96.68Z" fill="white"/>
<path d="M602.947 93.5733C635.413 93.1467 667.867 93.52 700.333 93.3867C719.893 93.5067 739.467 93.1467 759.027 93.5733C759.613 103.533 759.747 113.52 758.853 123.467C746.013 127.4 732.48 129.24 720.053 134.333C718.187 140.48 719.213 147.013 719.093 153.333C719.147 219.547 719.08 285.773 719.12 351.987C719.333 377.187 711.667 402.627 696.493 422.867C683.867 440.147 665.2 452.36 645.2 459.48C618.573 468.493 589.64 468.4 562.227 463.32C538.68 458.56 515.613 448.373 498.6 431.067C484.893 417.227 476.28 398.227 476.067 378.64C475.173 363.053 477.893 346.547 487.56 333.867C494.213 325.067 505.573 321.187 516.32 321.24C529.44 320.973 543.48 326.2 550.88 337.507C556.933 346.187 557.733 357.427 555.813 367.547C553.08 380.133 545.72 391.667 535.093 399.04C538.547 411.453 549.28 420.453 561.12 424.6C574.04 429.08 587.973 430.147 601.547 429.053C616.867 427.733 632.253 420.213 640.613 406.973C650.067 392.307 652.76 374.44 652.64 357.28C652.787 295.08 652.653 232.867 652.707 170.667C652.547 158.373 653.173 146.067 652.24 133.787C636.227 129.733 619.667 127.733 603.867 122.96C600.973 113.467 603 103.333 602.947 93.5733Z" fill="white"/>
<path d="M797.733 93.4533C855.48 93.3067 913.24 93.44 971 93.4C992.333 93.0933 1013.99 93.48 1034.75 99C1058.53 105.52 1079.85 121.573 1091.59 143.413C1101.48 161.667 1106.8 183.147 1102.85 203.813C1099.67 223.76 1089.56 242.173 1075.88 256.853C1066.11 266.52 1054.59 274.32 1042.6 280.96C1034.31 285.427 1025.15 287.853 1016.24 290.76C1022.04 298.28 1028.67 305.213 1033.57 313.4C1051.45 343.547 1069.07 373.84 1087.04 403.933C1090.07 408.92 1092.55 414.267 1096.09 418.933C1098.6 422.453 1103.16 423.093 1107.08 424.013C1118.93 426.267 1130.72 428.893 1142.55 431.32C1143.29 441.267 1143.13 451.24 1142.88 461.2C1102.89 461.253 1062.91 461.453 1022.92 461.093C1022.52 453.6 1022.71 446.107 1022.65 438.613C1022.67 428.72 1016.35 420.587 1012.37 411.987C995.267 377.267 976.853 343.227 959.987 308.4C958.453 305.653 957.173 302.467 954.467 300.667C951.16 299.827 947.707 299.987 944.333 299.973C931.907 300.28 919.493 299.933 907.067 300.213C906.467 334.36 907.093 368.52 906.773 402.667C906.68 408.76 906.92 414.853 907.2 420.933C922.973 424.467 938.76 427.933 954.573 431.333C955.36 441.28 955.173 451.24 954.893 461.213C902.507 461.32 850.12 461.32 797.72 461.213C797.787 451.613 796.68 441.933 798.04 432.4C801.24 430.16 805.133 429.387 808.853 428.44C819.293 426.093 829.627 423.32 840.053 420.92C840.613 348.173 840.133 275.413 840.293 202.667C840.133 179.693 840.627 156.707 840.067 133.747C825.907 130.173 811.547 127.32 797.64 122.8C797.453 113.013 797.4 103.24 797.733 93.4533ZM907.04 130.813C906.68 174.76 906.76 218.72 907 262.667C921.667 263 936.333 262.693 951 262.8C962.293 262.76 973.827 263.573 984.84 260.507C999.053 256.88 1012.48 248.587 1020.48 236.08C1030.52 220.507 1034.05 201.227 1031.91 182.947C1029.89 165.413 1019.29 149.2 1004.31 139.987C991.16 132.053 975.32 130.84 960.32 130.693C942.56 130.813 924.8 130.587 907.04 130.813Z" fill="white"/>
</svg>
